
SVGOMG
Powered by SVGO v4.0.0


Open SVG
Paste markup

Demo
Contribute



2.12k → 2.04k 95.95%
<svg xmlns="http://www.w3.org/2000/svg" xmlns:xlink="http://www.w3.org/1999/xlink" aria-hidden="true" style="position:absolute;width:0;height:0;overflow:hidden">
  <defs>
    <symbol id="icon-burger-menu" viewBox="0 0 32 32">
      <path stroke-linecap="round" stroke-linejoin="round" stroke-width="2.6667" d="M4 11.333h24M4 20.667h24"/>
    </symbol>
    <symbol id="icon-clock" viewBox="0 0 32 32">
      <path stroke-linecap="round" stroke-linejoin="round" stroke-width="2.4" d="M16 29.333c7.364 0 13.333-5.97 13.333-13.333S23.364 2.667 16 2.667 2.667 8.637 2.667 16c0 7.364 5.97 13.333 13.333 13.333"/>
      <path stroke-linecap="round" stroke-linejoin="round" stroke-width="2.4" d="M16 8v8l5.333 2.667"/>
    </symbol>
    <symbol id="icon-calendar" viewBox="0 0 32 32">
      <path stroke-linecap="round" stroke-linejoin="round" stroke-width="2.4" d="M25.333 5.333H6.666C5.193 5.333 3.999 6.527 3.999 8v18.667c0 1.473 1.194 2.667 2.667 2.667h18.667c1.473 0 2.667-1.194 2.667-2.667V8c0-1.473-1.194-2.667-2.667-2.667m-4-2.666V8M10.667 2.667V8M4 13.333h24"/>
    </symbol>
    <symbol id="icon-search" viewBox="0 0 32 32">
      <path stroke-linecap="round" stroke-linejoin="round" stroke-width="2.4" d="M14.667 25.333c5.891 0 10.667-4.776 10.667-10.667S20.558 3.999 14.667 3.999 4 8.775 4 14.666s4.776 10.667 10.667 10.667M28 28l-5.8-5.8"/>
    </symbol>
    <symbol id="icon-chevron-down" viewBox="0 0 32 32">
      <path stroke-linecap="round" stroke-linejoin="round" stroke-width="3.2" d="m8 12 8 8 8-8"/>
    </symbol>
    <symbol id="icon-chevron-up" viewBox="0 0 32 32">
      <path stroke-linecap="round" stroke-linejoin="round" stroke-width="3.2" d="m8 20 8-8 8 8"/>
    </symbol>
    <symbol id="icon-trash" viewBox="0 0 32 32">
      <path stroke-linecap="round" stroke-linejoin="round" stroke-width="3" d="M4 8h24m-2.667 0v18.667c0 .707-.281 1.385-.781 1.886s-1.178.781-1.886.781H9.333a2.6664 2.6664 0 0 1-2.667-2.667V8m4.001 0V5.333a2.6664 2.6664 0 0 1 2.667-2.667h5.333a2.6664 2.6664 0 0 1 2.667 2.667V8m-8.001 6.667v8m5.334-8v8"/>
    </symbol>
    <symbol id="icon-edit" viewBox="0 0 32 32">
      <path stroke-linecap="round" stroke-linejoin="round" stroke-width="3" d="M22.667 4c.35-.35.766-.628 1.224-.817s.948-.287 1.443-.287.986.098 1.443.287S27.65 3.65 28 4s.628.766.818 1.223c.189.458.287.948.287 1.443s-.098.986-.287 1.443c-.19.458-.467.873-.818 1.223l-18 18-7.333 2 2-7.333 18-18z"/>
    </symbol>
    <symbol id="icon-check" viewBox="0 0 32 32">
      <path stroke-linecap="round" stroke-linejoin="round" stroke-width="3" d="M26.667 8 12 22.667 5.333 16"/>
    </symbol>
    <symbol id="icon-success" viewBox="0 0 32 32">
      <path d="M0 16C0 7.162 7.162 0 16 0s16 7.162 16 16c0 8.837-7.163 16-16 16S0 24.837 0 16m23.237-2.762c.681-.681.681-1.794 0-2.475s-1.794-.681-2.475 0l-6.763 6.762-2.763-2.762c-.681-.681-1.794-.681-2.475 0s-.681 1.794 0 2.475l4 4c.681.681 1.794.681 2.475 0l8-8z"/>
    </symbol>
    <symbol id="icon-error" viewBox="0 0 32 32">
      <path d="M0 16C0 7.162 7.162 0 16 0s16 7.162 16 16c0 8.837-7.163 16-16 16S0 24.837 0 16m10.938-2.994 2.944 2.938-2.944 2.994c-.581.588-.581 1.538 0 2.069.588.637 1.537.637 2.069 0l2.938-2.888 2.994 2.888c.588.637 1.538.637 2.069 0 .637-.531.637-1.481 0-2.069l-2.888-2.994 2.888-2.938c.637-.531.637-1.481 0-2.069-.531-.581-1.481-.581-2.069 0l-2.994 2.944-2.938-2.944c-.531-.581-1.481-.581-2.069 0-.581.588-.581 1.537 0 2.069"/>
    </symbol>
    <symbol id="icon-arrow-up" viewBox="0 0 26 32">
      <path d="M23.648 1.613C23.499.584 22.544-.129 21.515.02L4.749 2.448c-1.029.149-1.742 1.104-1.593 2.133S4.26 6.323 5.289 6.174l14.903-2.159 2.159 14.903c.149 1.029 1.104 1.742 2.133 1.593s1.742-1.104 1.593-2.133L23.649 1.612zM1.508 29.028l1.508 1.127L23.293 3.01 20.277.757 0 27.902z"/>
    </symbol>
    <symbol id="icon-arrow-down" viewBox="0 0 28 32">
      <path d="M2.127 28.747c.13 1.097 1.124 1.881 2.221 1.751l17.876-2.113c1.097-.13 1.881-1.124 1.751-2.221s-1.124-1.881-2.221-1.751L5.865 26.291 3.987 10.402c-.13-1.097-1.124-1.881-2.221-1.751S-.115 9.775.015 10.872l2.113 17.876zM24.051 0 2.543 27.274l3.141 2.477L27.192 2.477z"/>
    </symbol>
    <symbol id="icon-user" viewBox="0 0 32 32">
      <path stroke-linecap="round" stroke-linejoin="round" stroke-width="2.6" d="M26.667 28v-2.667c0-1.415-.562-2.771-1.562-3.771S22.748 20 21.334 20H10.667c-1.415 0-2.771.562-3.771 1.562s-1.562 2.357-1.562 3.771V28m10.665-13.333c2.946 0 5.333-2.388 5.333-5.333s-2.388-5.333-5.333-5.333-5.333 2.388-5.333 5.333 2.388 5.333 5.333 5.333"/>
    </symbol>
    <symbol id="icon-eye-off" viewBox="0 0 32 32">
      <path stroke-linecap="round" stroke-linejoin="round" stroke-width="2.4" d="M23.92 23.92A13.43 13.43 0 0 1 16 26.667C6.667 26.667 1.333 16 1.333 16A24.605 24.605 0 0 1 8.08 8.08m5.12-2.427c.918-.215 1.857-.322 2.8-.32C25.333 5.333 30.667 16 30.667 16a24.65 24.65 0 0 1-2.88 4.253m-8.96-1.426a4.003 4.003 0 0 1-2.856 1.273c-.537.009-1.071-.089-1.569-.291s-.95-.501-1.33-.88c-.38-.38-.679-.832-.88-1.33s-.3-1.032-.29-1.569c.009-.537.127-1.067.346-1.558s.534-.932.927-1.298M1.333 1.333l29.333 29.333"/>
    </symbol>
    <symbol id="icon-eye" viewBox="0 0 32 32">
      <path stroke-linecap="round" stroke-linejoin="round" stroke-width="2.4" d="M1.333 16S6.666 5.333 16 5.333 30.667 16 30.667 16 25.334 26.667 16 26.667C6.667 26.667 1.333 16 1.333 16"/>
      <path stroke-linecap="round" stroke-linejoin="round" stroke-width="2.4" d="M16 20c2.209 0 4-1.791 4-4s-1.791-4-4-4-4 1.791-4 4 1.791 4 4 4"/>
    </symbol>
    <symbol id="icon-Icon" viewBox="0 0 54 32">
      <path fill="#0ef387" d="M37.14 22.762c-.105-.281-9.39-18.757-9.529-19.038-.489-1.194-1.361-2.213-2.513-2.916-2.897-1.686-6.597-.703-8.273 2.213-1.152 2.002-1.082 4.356.035 6.217.105.246 8.971 17.95 9.145 18.231.105.281.244.527.384.808.489 1.194 1.361 2.213 2.513 2.916 2.897 1.686 6.597.738 8.273-2.178 1.187-2.002 1.082-4.391-.035-6.252z" style="fill:var(--color1, #0ef387)"/>
      <path fill="#fafafa" d="M26.424 10.257a6.135 6.135 0 0 0 1.641-4.18C28.065 2.74 25.377 0 22.026 0c-2.059 0-3.875 1.019-4.957 2.599C16.86 2.81 1.815 21.497 1.64 21.743a6.135 6.135 0 0 0-1.641 4.18C-.001 29.295 2.722 32 6.038 32c2.059 0 3.875-1.019 4.957-2.599.209-.246 15.289-18.898 15.429-19.144m25.935 0A6.135 6.135 0 0 0 54 6.077C54 2.705 51.277 0 47.961 0c-2.06 0-3.875 1.019-4.957 2.599-.209.211-15.289 18.898-15.463 19.144a6.135 6.135 0 0 0-1.641 4.18c0 3.372 2.723 6.077 6.039 6.077 2.059 0 3.875-1.019 4.957-2.599.244-.246 15.289-18.898 15.464-19.144z" style="fill:var(--color2, #fafafa)"/>
    </symbol>
  </defs>
</svg>